<svg width="423" height="411" viewBox="0 0 423 411" fill="none" xmlns="http://www.w3.org/2000/svg">
<path d="M412.685 192.727C412.685 293.299 327.972 375.455 222.685 375.455C117.399 375.455 32.6852 293.299 32.6852 192.727C32.6852 92.1557 117.399 10 222.685 10C327.972 10 412.685 92.1557 412.685 192.727Z" stroke="#3E3A3A" stroke-width="20"/>
<path d="M75.2473 232.462C75.9839 231.939 76.7319 231.374 77.4913 230.768C78.2583 230.184 79.0253 229.6 79.7923 229.016L76.7258 219.793C75.7619 219.784 74.7943 219.765 73.8229 219.734C72.859 219.725 71.9255 219.732 71.0223 219.754L69.1824 214.22C72.0284 214.26 74.6657 214.319 77.0943 214.397C79.5229 214.475 81.8186 214.571 83.9815 214.687C86.152 214.825 88.2124 214.975 90.1628 215.136C92.1435 215.312 94.0862 215.526 95.991 215.778L97.6833 220.868C96.3009 222.187 94.8693 223.511 93.3883 224.838C91.9301 226.157 90.3694 227.511 88.7062 228.898C87.0506 230.308 85.2735 231.772 83.375 233.288C81.4764 234.805 79.3994 236.431 77.144 238.167L75.2473 232.462ZM91.434 219.986C91.0546 219.986 90.5309 219.971 89.863 219.94C89.1952 219.909 88.4249 219.874 87.5521 219.835C86.6794 219.797 85.7155 219.75 84.6606 219.697C83.6133 219.665 82.5167 219.638 81.3707 219.614L83.6081 226.344C84.5118 225.639 85.3737 224.96 86.1939 224.308C87.0141 223.656 87.7583 223.042 88.4267 222.466C89.1026 221.912 89.6987 221.423 90.2151 220.999C90.7315 220.574 91.1378 220.237 91.434 219.986Z" fill="white"/>
<path d="M105.655 238.869C105.218 239.657 104.65 240.6 103.952 241.696C103.287 242.799 102.538 243.97 101.704 245.209C100.902 246.456 100.064 247.711 99.1897 248.976C98.3149 250.241 97.4918 251.43 96.7203 252.544C98.0571 252.322 99.4841 252.086 101.001 251.834C102.518 251.583 104.005 251.351 105.462 251.138C106.951 250.933 108.33 250.755 109.599 250.605C110.9 250.462 112.001 250.361 112.902 250.302L115.638 254.619C114.368 255.709 112.913 256.887 111.272 258.154C109.665 259.428 107.957 260.724 106.149 262.04C104.374 263.364 102.576 264.674 100.755 265.971C98.9466 267.287 97.2371 268.513 95.6262 269.647L92.6968 265.026C94.7057 263.667 96.8841 262.173 99.2322 260.542C101.58 258.912 103.916 257.218 106.241 255.461C105.158 255.636 103.959 255.828 102.642 256.037C101.326 256.246 100.009 256.456 98.6925 256.665C97.3889 256.894 96.1322 257.108 94.9225 257.307C93.733 257.492 92.7139 257.655 91.8651 257.796L89.7644 254.481C90.2535 253.773 90.8358 252.921 91.5113 251.925C92.2071 250.916 92.9306 249.86 93.6817 248.759C94.4458 247.678 95.2034 246.587 95.9545 245.486C96.7057 244.385 97.3914 243.382 98.0115 242.477C95.4302 243.829 92.9013 245.219 90.4247 246.646C87.9482 248.074 85.667 249.406 83.581 250.643L80.6517 246.021C82.3653 245.049 84.1968 244.016 86.1463 242.922C88.1086 241.849 90.0608 240.782 92.0029 239.722C93.978 238.669 95.8785 237.677 97.7044 236.747C99.5633 235.825 101.256 235.022 102.784 234.338L105.655 238.869Z" fill="white"/>
<path d="M140.06 283.25C137.956 281.694 135.997 281.156 134.181 281.634C132.398 282.107 130.758 283.357 129.26 285.383C128.532 286.367 127.984 287.35 127.617 288.332C127.263 289.294 127.104 290.236 127.139 291.158C127.175 292.079 127.418 292.961 127.87 293.802C128.337 294.625 129.033 295.378 129.96 296.063C130.461 296.434 130.893 296.738 131.255 296.976C131.636 297.228 131.983 297.425 132.295 297.566L137.453 290.59L141.969 293.929L134.628 303.858C133.931 303.671 132.899 303.25 131.531 302.597C130.149 301.964 128.58 300.998 126.824 299.699C125.318 298.586 124.119 297.342 123.227 295.965C122.353 294.603 121.811 293.158 121.598 291.628C121.386 290.098 121.517 288.508 121.991 286.859C122.483 285.223 123.343 283.576 124.57 281.916C125.812 280.237 127.171 278.944 128.648 278.036C130.125 277.128 131.645 276.566 133.208 276.349C134.786 276.112 136.354 276.212 137.912 276.647C139.49 277.097 140.973 277.836 142.363 278.863C143.308 279.562 144.107 280.258 144.76 280.949C145.446 281.636 145.996 282.266 146.408 282.839C146.853 283.407 147.185 283.906 147.404 284.337C147.643 284.782 147.803 285.109 147.886 285.32L143.908 287.975C143.533 287.191 143.026 286.383 142.387 285.552C141.781 284.716 141.005 283.949 140.06 283.25Z" fill="white"/>
<path d="M154.478 301.556C153.983 302.675 153.669 303.743 153.534 304.76C153.422 305.786 153.473 306.74 153.687 307.622C153.932 308.491 154.351 309.266 154.942 309.947C155.533 310.628 156.311 311.182 157.277 311.609C158.221 312.026 159.144 312.224 160.046 312.203C160.969 312.191 161.824 311.978 162.61 311.565C163.428 311.139 164.168 310.534 164.829 309.751C165.512 308.977 166.101 308.03 166.596 306.911C167.09 305.791 167.394 304.718 167.506 303.692C167.65 302.654 167.599 301.7 167.354 300.83C167.14 299.949 166.727 299.162 166.113 298.472C165.522 297.791 164.755 297.242 163.811 296.824C162.845 296.398 161.906 296.206 160.995 296.249C160.093 296.271 159.234 296.494 158.416 296.92C157.63 297.333 156.89 297.938 156.197 298.734C155.536 299.518 154.963 300.458 154.478 301.556ZM171.897 309.253C171.034 311.207 169.976 312.799 168.723 314.03C167.503 315.249 166.164 316.14 164.708 316.703C163.262 317.245 161.725 317.458 160.097 317.342C158.491 317.236 156.886 316.828 155.284 316.12C153.725 315.432 152.366 314.529 151.206 313.413C150.046 312.297 149.169 311.017 148.573 309.573C147.988 308.108 147.724 306.508 147.781 304.776C147.848 303.021 148.313 301.167 149.177 299.213C150.04 297.259 151.104 295.683 152.368 294.484C153.643 293.263 155.019 292.375 156.497 291.821C157.997 291.277 159.539 291.053 161.123 291.15C162.729 291.256 164.29 291.644 165.804 292.313C167.363 293.002 168.722 293.904 169.882 295.02C171.042 296.136 171.915 297.427 172.5 298.893C173.086 300.359 173.345 301.969 173.278 303.724C173.221 305.456 172.76 307.3 171.897 309.253Z" fill="white"/>
<path d="M200.35 323.459C200.611 323.507 200.907 323.557 201.24 323.611C201.598 323.643 202.017 323.681 202.495 323.724C205.292 323.974 207.423 323.453 208.887 322.163C210.376 320.874 211.232 318.987 211.454 316.501C211.687 313.895 211.218 311.865 210.047 310.411C208.876 308.957 206.892 308.105 204.095 307.855C203.712 307.821 203.317 307.797 202.908 307.785C202.502 307.749 202.117 307.738 201.755 307.754L200.35 323.459ZM217.227 317.017C217.034 319.169 216.532 321.015 215.719 322.557C214.907 324.099 213.832 325.34 212.495 326.281C211.182 327.223 209.617 327.879 207.801 328.246C205.985 328.614 203.978 328.699 201.778 328.503C200.774 328.413 199.607 328.26 198.277 328.045C196.945 327.854 195.645 327.569 194.378 327.19L196.543 302.987C197.855 302.863 199.207 302.828 200.6 302.88C202.019 302.91 203.231 302.971 204.235 303.06C206.362 303.251 208.265 303.662 209.943 304.294C211.646 304.928 213.072 305.815 214.223 306.954C215.375 308.093 216.213 309.493 216.739 311.154C217.265 312.816 217.428 314.77 217.227 317.017Z" fill="white"/>
<path d="M232.226 316.27C232.385 317.484 232.671 318.56 233.084 319.498C233.521 320.434 234.06 321.222 234.7 321.865C235.362 322.48 236.122 322.925 236.981 323.2C237.84 323.475 238.793 323.544 239.84 323.408C240.863 323.274 241.754 322.964 242.514 322.477C243.297 321.987 243.917 321.362 244.374 320.6C244.852 319.811 245.17 318.911 245.328 317.898C245.51 316.881 245.521 315.767 245.362 314.553C245.204 313.339 244.906 312.265 244.469 311.33C244.053 310.367 243.514 309.579 242.853 308.963C242.212 308.321 241.45 307.864 240.568 307.592C239.709 307.317 238.768 307.246 237.744 307.38C236.697 307.517 235.796 307.84 235.039 308.351C234.28 308.837 233.662 309.475 233.184 310.263C232.727 311.025 232.409 311.926 232.23 312.966C232.072 313.979 232.071 315.08 232.226 316.27ZM251.11 313.802C251.386 315.92 251.309 317.83 250.878 319.532C250.468 321.207 249.787 322.664 248.836 323.902C247.881 325.116 246.678 326.096 245.226 326.842C243.799 327.586 242.216 328.071 240.479 328.298C238.789 328.519 237.159 328.454 235.588 328.102C234.018 327.751 232.603 327.113 231.344 326.188C230.083 325.24 229.027 324.01 228.176 322.5C227.322 320.966 226.756 319.139 226.479 317.022C226.202 314.904 226.293 313.004 226.751 311.322C227.205 309.617 227.921 308.144 228.896 306.903C229.895 305.659 231.097 304.667 232.501 303.926C233.928 303.183 235.463 302.704 237.105 302.49C238.795 302.269 240.425 302.334 241.996 302.685C243.567 303.037 244.983 303.686 246.244 304.635C247.506 305.583 248.564 306.825 249.418 308.359C250.269 309.869 250.833 311.684 251.11 313.802Z" fill="white"/>
<path d="M288.013 314.123C286.782 314.721 285.531 315.275 284.258 315.787C283.018 316.31 281.671 316.751 280.218 317.11L269.644 295.352C270.586 294.654 271.651 293.963 272.839 293.278C274.017 292.572 275.135 291.963 276.193 291.448C277.617 290.756 278.976 290.229 280.268 289.868C281.571 289.475 282.775 289.317 283.88 289.394C284.984 289.471 285.973 289.804 286.847 290.393C287.732 290.951 288.462 291.823 289.039 293.01C289.91 294.802 289.734 296.635 288.511 298.511C290.197 298.358 291.525 298.62 292.495 299.296C293.464 299.973 294.232 300.894 294.798 302.059C295.942 304.412 295.938 306.602 294.788 308.628C293.66 310.644 291.402 312.476 288.013 314.123ZM280.561 305.296L283.378 311.092C283.765 310.957 284.181 310.795 284.623 310.607C285.065 310.418 285.545 310.198 286.063 309.947C287.574 309.212 288.689 308.404 289.407 307.521C290.126 306.638 290.202 305.614 289.635 304.448C289.132 303.412 288.386 302.867 287.399 302.813C286.402 302.737 285.18 303.051 283.734 303.754L280.561 305.296ZM278.688 301.443L281.149 300.247C282.703 299.492 283.72 298.757 284.201 298.043C284.671 297.308 284.69 296.498 284.26 295.613C283.82 294.706 283.165 294.237 282.296 294.206C281.427 294.175 280.323 294.484 278.985 295.135C278.553 295.345 278.094 295.581 277.608 295.844C277.112 296.085 276.68 296.322 276.312 296.554L278.688 301.443Z" fill="white"/>
<path d="M303.597 290.377C304.353 291.34 305.148 292.119 305.982 292.715C306.835 293.297 307.701 293.7 308.58 293.926C309.463 294.117 310.344 294.112 311.223 293.911C312.102 293.709 312.956 293.282 313.787 292.63C314.599 291.993 315.207 291.271 315.612 290.465C316.035 289.644 316.25 288.79 316.254 287.902C316.262 286.98 316.076 286.043 315.695 285.091C315.333 284.124 314.774 283.159 314.018 282.197C313.262 281.234 312.458 280.462 311.605 279.88C310.756 279.265 309.89 278.862 309.007 278.67C308.129 278.445 307.24 278.44 306.342 278.657C305.463 278.859 304.618 279.278 303.806 279.915C302.976 280.567 302.365 281.306 301.975 282.131C301.571 282.937 301.364 283.801 301.356 284.723C301.351 285.611 301.537 286.548 301.914 287.533C302.295 288.485 302.856 289.433 303.597 290.377ZM318.577 278.618C319.896 280.298 320.805 281.98 321.303 283.664C321.805 285.314 321.962 286.914 321.776 288.464C321.574 289.995 321.04 291.452 320.172 292.835C319.324 294.203 318.211 295.428 316.832 296.509C315.492 297.562 314.057 298.337 312.527 298.837C310.996 299.336 309.454 299.509 307.9 299.356C306.331 299.184 304.795 298.666 303.293 297.801C301.775 296.918 300.357 295.636 299.038 293.956C297.719 292.276 296.828 290.596 296.363 288.916C295.884 287.217 295.748 285.585 295.953 284.021C296.178 282.441 296.705 280.974 297.534 279.621C298.383 278.254 299.458 277.058 300.761 276.036C302.101 274.984 303.537 274.208 305.067 273.709C306.597 273.209 308.146 273.045 309.715 273.217C311.284 273.389 312.828 273.917 314.345 274.8C315.848 275.665 317.258 276.938 318.577 278.618Z" fill="white"/>
<path d="M341.511 264.018L345.207 267.119L334.493 279.887L315.382 263.851L318.991 259.549L334.407 272.484L341.511 264.018Z" fill="white"/>
<path d="M351.346 249.277C351.729 248.583 351.99 247.987 352.129 247.488C352.258 246.956 352.304 246.502 352.266 246.124C352.207 245.735 352.07 245.412 351.855 245.156C351.64 244.901 351.364 244.68 351.028 244.494C350.314 244.099 349.54 244.11 348.706 244.527C347.852 244.932 346.699 245.803 345.247 247.14C344.6 247.715 343.922 248.272 343.212 248.812C342.481 249.341 341.718 249.755 340.921 250.055C340.104 250.344 339.25 250.475 338.359 250.449C337.448 250.412 336.488 250.114 335.479 249.557C334.471 249 333.672 248.312 333.083 247.493C332.473 246.662 332.075 245.743 331.891 244.736C331.707 243.73 331.741 242.652 331.992 241.502C332.223 240.34 332.681 239.14 333.366 237.901C334.178 236.43 335.038 235.246 335.945 234.349C336.852 233.452 337.686 232.761 338.447 232.277L341.54 235.837C340.888 236.272 340.237 236.804 339.588 237.432C338.93 238.028 338.311 238.851 337.73 239.901C337.08 241.078 336.778 242.021 336.824 242.732C336.861 243.41 337.215 243.935 337.887 244.307C338.286 244.527 338.675 244.619 339.052 244.58C339.43 244.542 339.827 244.419 340.244 244.211C340.651 243.97 341.071 243.681 341.504 243.344C341.927 242.975 342.385 242.569 342.875 242.128C343.922 241.225 344.888 240.47 345.773 239.862C346.636 239.243 347.492 238.811 348.34 238.566C349.199 238.301 350.072 238.235 350.958 238.368C351.844 238.501 352.812 238.858 353.863 239.438C355.9 240.564 357.092 242.155 357.437 244.21C357.761 246.254 357.127 248.715 355.537 251.592C355.003 252.559 354.458 253.396 353.903 254.103C353.368 254.822 352.849 255.44 352.344 255.956C351.851 256.452 351.388 256.868 350.955 257.204C350.534 257.52 350.158 257.778 349.828 257.98L346.687 254.434C347.404 253.98 348.17 253.362 348.987 252.579C349.794 251.764 350.58 250.663 351.346 249.277Z" fill="white"/>
<g clip-path="url(#clip0_28_2216)">
<path d="M124.473 274.609L114.14 262.722C113.683 262.197 113.023 261.887 112.305 261.858C111.588 261.83 110.871 262.086 110.313 262.571L106.103 266.23C105.731 266.554 105.496 267.003 105.448 267.48C105.4 267.956 105.544 268.42 105.848 268.771L100.936 273.04C100.564 273.364 100.329 273.813 100.281 274.29C100.233 274.766 100.377 275.23 100.681 275.581L102.977 278.222C103.282 278.572 103.722 278.779 104.2 278.798C104.678 278.817 105.156 278.646 105.529 278.323L113.948 271.004L112.8 269.683L104.38 277.002L102.084 274.361L108.399 268.872L107.251 267.551L111.461 263.891C111.647 263.73 111.886 263.644 112.125 263.654C112.364 263.663 112.584 263.767 112.736 263.942L123.069 275.828C123.221 276.004 123.293 276.236 123.269 276.474C123.246 276.712 123.128 276.937 122.942 277.099L118.732 280.758L117.584 279.438L111.269 284.927L108.973 282.285L117.393 274.966L116.244 273.646L107.825 280.965C107.453 281.289 107.217 281.738 107.17 282.214C107.122 282.69 107.266 283.155 107.57 283.505L109.866 286.147C110.171 286.497 110.61 286.704 111.089 286.723C111.567 286.741 112.045 286.571 112.417 286.248L117.329 281.978C117.633 282.328 118.073 282.535 118.552 282.554C119.03 282.573 119.508 282.402 119.88 282.079L124.09 278.419C124.647 277.934 125.001 277.26 125.073 276.545C125.144 275.831 124.929 275.134 124.473 274.609Z" fill="#E42A2D"/>
<path d="M116.564 264.093C116.109 263.571 115.83 262.917 115.761 262.214C115.692 261.512 115.836 260.792 116.175 260.147C116.514 259.501 117.033 258.958 117.666 258.587C118.299 258.215 119.017 258.032 119.731 258.06C120.445 258.089 121.121 258.327 121.675 258.745C122.229 259.163 122.635 259.743 122.842 260.41C123.049 261.078 123.048 261.803 122.839 262.494C122.629 263.186 122.221 263.812 121.666 264.295C120.922 264.941 119.966 265.283 119.009 265.245C118.053 265.207 117.173 264.793 116.564 264.093ZM120.773 260.433C120.546 260.172 120.242 259.988 119.899 259.905C119.556 259.822 119.19 259.843 118.846 259.966C118.503 260.089 118.198 260.308 117.97 260.596C117.742 260.884 117.602 261.227 117.566 261.582C117.53 261.937 117.601 262.289 117.77 262.592C117.938 262.895 118.197 263.137 118.513 263.286C118.829 263.435 119.188 263.485 119.545 263.429C119.902 263.374 120.241 263.215 120.518 262.974C120.89 262.65 121.126 262.201 121.173 261.725C121.221 261.248 121.077 260.784 120.773 260.433Z" fill="#E42A2D"/>
<path d="M123.452 272.018C122.998 271.495 122.719 270.841 122.649 270.139C122.58 269.436 122.724 268.717 123.063 268.071C123.402 267.425 123.921 266.882 124.554 266.511C125.187 266.14 125.906 265.957 126.62 265.985C127.333 266.013 128.01 266.251 128.563 266.67C129.117 267.088 129.523 267.667 129.73 268.335C129.938 269.002 129.936 269.727 129.727 270.419C129.518 271.11 129.11 271.737 128.555 272.219C127.81 272.865 126.855 273.207 125.898 273.169C124.941 273.131 124.062 272.717 123.452 272.018ZM127.662 268.358C127.435 268.097 127.131 267.913 126.788 267.83C126.445 267.747 126.078 267.768 125.735 267.891C125.392 268.014 125.087 268.233 124.859 268.52C124.631 268.808 124.49 269.151 124.455 269.506C124.419 269.862 124.49 270.213 124.658 270.517C124.827 270.82 125.086 271.061 125.402 271.21C125.718 271.359 126.077 271.409 126.434 271.354C126.791 271.298 127.129 271.14 127.407 270.899C127.779 270.575 128.014 270.125 128.062 269.649C128.11 269.173 127.966 268.708 127.662 268.358Z" fill="#E42A2D"/>
</g>
<g clip-path="url(#clip1_28_2216)">
<path d="M266.905 93.6798C265.326 93.087 260.687 91.3502 240.534 83.8864C237.204 82.6413 233.954 81.514 233.323 81.3701C230.322 80.6861 224.824 80.6487 222.095 81.2862C220.794 81.5827 220.69 81.629 219.938 82.3618C219.077 83.207 218.202 84.5943 217.547 86.123C217.31 86.668 217.044 87.177 216.972 87.2373C216.9 87.2975 204.981 87.386 190.481 87.4372C164.688 87.5207 164.122 87.5267 163.763 87.95C163.396 88.3394 163.272 88.3618 161.055 88.2233L158.728 88.0751L158.197 87.4187C157.836 86.9878 157.431 86.6751 156.95 86.4667C155.453 85.8256 151.479 85.611 148.152 85.9964C146.314 86.2127 146.468 86.1041 145.29 88.0307C142.622 92.411 142.652 98.9128 145.37 103.465C145.805 104.202 145.825 104.226 146.858 104.46C150.075 105.208 153.925 105.445 155.762 104.984C156.782 104.741 156.876 104.682 157.35 104.08C157.637 103.717 157.952 103.412 158.076 103.39C158.178 103.365 159.372 103.403 160.729 103.489L163.18 103.615L163.727 104.339C164.265 105.029 164.271 105.085 164.472 108.752C165.16 121.289 166.317 134.311 167.332 141.087C167.606 142.897 167.645 142.967 168.128 143.275C170.698 144.953 188.92 145.594 212.352 144.86C219.638 144.621 219.202 144.661 222.606 143.905L225.649 143.228L230.095 143.617C238.516 144.343 243.749 143.991 246.53 142.493C247.193 142.141 248.261 141.347 249.721 140.122C251.9 138.294 251.993 138.235 255.959 136.009C258.175 134.761 260.134 133.668 260.296 133.594C260.47 133.509 261.326 133.606 262.272 133.833C265.075 134.5 266.243 134.458 267.768 133.627C267.978 133.512 268.268 133.493 268.394 133.57C268.543 133.65 270.187 134.249 272.038 134.898L275.405 136.091L275.847 135.598L276.29 135.104L277.234 135.719C287.045 142.234 295.927 149.1 301.71 154.63C303.47 156.314 306.035 159.444 307.324 161.443C309.529 164.896 312.483 170.556 315.027 176.213C315.992 178.36 318.614 184.523 318.844 185.186C318.978 185.564 321.475 185.794 322.707 185.535C324.21 185.212 325.468 184.524 326.832 183.257C327.47 182.68 328.044 182.076 328.112 181.938C328.418 181.355 323.537 170.214 319.9 163.23C317.631 158.873 315.495 155.525 313.305 152.916C308.324 146.979 297.972 138.021 284.92 128.373C282.316 126.437 282.182 126.326 282.255 125.999C282.338 125.685 282.219 125.519 280.129 123.296C278.922 122.003 277.892 120.848 277.858 120.735C277.821 120.643 277.954 120.144 278.152 119.651C278.856 117.938 278.605 117.007 276.891 115.182C275.644 113.842 273.528 112.293 271.263 111.052L269.74 110.209L269.298 108.662C268.855 107.137 268.861 107.071 269.221 105.239C270.234 100.248 270.17 96.1614 269.055 94.8328C268.744 94.4618 268.225 94.1834 266.905 93.6798ZM221.688 112.815L222.061 118.437L220.696 121.113C219.957 122.59 219.257 123.87 219.161 123.951C218.91 124.162 218.661 123.84 216.55 120.839C214.62 118.052 214.281 117.745 212.275 116.838C210.087 115.859 207.695 115.561 205.164 115.972C204.568 116.064 200.394 117.628 193.939 120.169C180.157 125.573 178.459 126.223 178.271 126.096C178.112 126.004 182.712 105.379 182.975 105.036C183.05 104.932 190.645 104.964 200.48 105.114L217.836 105.38L219.515 106.092C220.434 106.483 221.22 106.885 221.254 106.999C221.291 107.09 221.494 109.715 221.688 112.815ZM211.243 126.862C211.972 128.8 212.552 130.537 212.548 130.703C212.537 130.957 212.441 131.038 211.912 131.257C211.223 131.53 211.086 131.44 210.699 130.419C210.576 130.054 210.38 129.748 210.302 129.752C210.202 129.755 208.084 130.9 205.564 132.321C202.053 134.288 200.857 134.904 200.421 134.943C199.405 135.021 185.689 135.496 185.57 135.452C185.334 135.365 180.614 131.003 180.636 130.883C180.641 130.695 180.721 130.669 193.521 125.578C204.358 121.258 204.999 121.026 205.896 121.049C206.416 121.061 207.146 121.203 207.521 121.357C209.35 122.127 209.664 122.598 211.243 126.862Z" fill="#E42A2D"/>
</g>
<path d="M363.065 203.668C368.931 207.775 370.309 216.065 366.007 222.209C361.706 228.352 353.444 229.893 347.578 225.785C341.712 221.677 340.333 213.387 344.635 207.244C348.937 201.1 357.198 199.56 363.065 203.668Z" stroke="#E42A2D" stroke-width="3"/>
<path d="M360.409 219.276C359.785 220.027 359.21 220.593 358.683 220.973C358.154 221.334 357.744 221.593 357.456 221.749L356.065 219.726C356.519 219.473 357.005 219.139 357.525 218.722C358.053 218.293 358.523 217.785 358.936 217.195C359.403 216.528 359.633 216.014 359.626 215.651C359.616 215.27 359.448 214.965 359.12 214.735C358.913 214.59 358.703 214.517 358.493 214.516C358.271 214.507 358.035 214.553 357.785 214.655C357.535 214.756 357.256 214.911 356.947 215.119C356.628 215.318 356.273 215.558 355.882 215.838C355.499 216.106 355.108 216.362 354.711 216.604C354.31 216.828 353.895 217.002 353.467 217.125C353.047 217.238 352.611 217.266 352.161 217.212C351.708 217.139 351.246 216.938 350.777 216.609C350.416 216.356 350.107 216.066 349.848 215.738C349.586 215.392 349.395 215.014 349.275 214.605C349.155 214.195 349.124 213.75 349.183 213.271C349.231 212.784 349.38 212.269 349.629 211.728L347.86 210.489L349.305 208.424L351.009 209.617C351.461 209.088 351.883 208.659 352.276 208.331C352.675 207.993 353.014 207.742 353.291 207.578L354.902 209.462C354.497 209.716 354.071 210.044 353.625 210.448C353.187 210.842 352.785 211.3 352.418 211.825C352.05 212.349 351.874 212.787 351.888 213.139C351.902 213.49 352.051 213.766 352.335 213.964C352.51 214.087 352.686 214.161 352.863 214.187C353.037 214.195 353.226 214.157 353.431 214.073C353.637 213.989 353.865 213.872 354.116 213.722C354.364 213.554 354.654 213.35 354.985 213.109C355.496 212.751 355.997 212.443 356.487 212.184C356.986 211.914 357.474 211.728 357.954 211.624C358.43 211.502 358.906 211.485 359.381 211.573C359.864 211.651 360.346 211.858 360.826 212.194C361.154 212.424 361.447 212.702 361.706 213.03C361.954 213.35 362.134 213.721 362.246 214.141C362.359 214.562 362.383 215.026 362.32 215.535C362.264 216.034 362.093 216.581 361.805 217.177L363.804 218.577L362.359 220.641L360.409 219.276Z" fill="white"/>
<path d="M361.929 231.417H363.292L360.792 236L358.292 231.417H359.656V226H361.929V231.417Z" fill="#0EB502"/>
<path d="M339.384 205.817C338.632 204.429 337.673 203.037 336.466 201.536C337.48 202.062 338.545 202.44 339.706 202.68C342.089 203.172 344.842 203.077 348.332 202.543L341.503 212.215C341.149 209.887 340.494 207.864 339.384 205.817Z" fill="#E42A2D" stroke="#E42A2D" stroke-linecap="round"/>
<ellipse cx="327.862" cy="196.415" rx="2" ry="4" transform="rotate(-70 327.862 196.415)" fill="#E42A2D"/>
<line x1="84.3317" y1="68.6464" x2="90.3317" y2="62.6464" stroke="white"/>
<line x1="99.3985" y1="54.4574" x2="106.349" y2="49.5904" stroke="white"/>
<line x1="116.437" y1="40.5659" x2="123.437" y2="36.5659" stroke="white"/>
<path d="M143.685 25.5L153.685 22" stroke="white"/>
<path d="M143.685 25.5L153.685 22" stroke="white"/>
<path d="M143.685 25.5L153.685 22" stroke="white"/>
<path d="M173.685 16.4468L184.141 14.7365" stroke="white"/>
<path d="M173.685 16.4468L184.141 14.7365" stroke="white"/>
<path d="M173.685 16.4468L184.141 14.7365" stroke="white"/>
<path d="M204.631 11.988L215.196 11.1954" stroke="white"/>
<path d="M204.631 11.988L215.196 11.1954" stroke="white"/>
<path d="M204.631 11.988L215.196 11.1954" stroke="white"/>
<path d="M235.685 11.1721L246.228 12.2262" stroke="white"/>
<path d="M235.685 11.1721L246.228 12.2262" stroke="white"/>
<path d="M235.685 11.1721L246.228 12.2262" stroke="white"/>
<path d="M265.685 16.0311L276.095 18" stroke="white"/>
<path d="M265.685 16.0311L276.095 18" stroke="white"/>
<path d="M265.685 16.0311L276.095 18" stroke="white"/>
<path d="M294.685 24.6812L304.595 28.4279" stroke="white"/>
<path d="M294.685 24.6812L304.595 28.4279" stroke="white"/>
<path d="M294.685 24.6812L304.595 28.4279" stroke="white"/>
<path d="M321.086 36.8492L330.195 42.2599" stroke="white"/>
<path d="M321.086 36.8492L330.195 42.2599" stroke="white"/>
<path d="M321.086 36.8492L330.195 42.2599" stroke="white"/>
<path d="M342.685 51.0075L351.288 57.1915" stroke="white"/>
<path d="M342.685 51.0075L351.288 57.1915" stroke="white"/>
<path d="M342.685 51.0075L351.288 57.1915" stroke="white"/>
<path d="M360.685 67.4792L368.084 75.0631" stroke="white"/>
<path d="M360.685 67.4792L368.084 75.0631" stroke="white"/>
<path d="M360.685 67.4792L368.084 75.0631" stroke="white"/>
<path d="M376.685 84.9059L382.654 93.6593" stroke="white"/>
<path d="M376.685 84.9059L382.654 93.6593" stroke="white"/>
<path d="M376.685 84.9059L382.654 93.6593" stroke="white"/>
<path d="M389.685 104.305L394.043 113.962" stroke="white"/>
<path d="M389.685 104.305L394.043 113.962" stroke="white"/>
<path d="M389.685 104.305L394.043 113.962" stroke="white"/>
<path d="M399.114 124.133L402.614 134.133" stroke="white"/>
<path d="M399.114 124.133L402.614 134.133" stroke="white"/>
<path d="M399.114 124.133L402.614 134.133" stroke="white"/>
<path d="M406.557 146L409.172 156.267" stroke="white"/>
<path d="M406.557 146L409.172 156.267" stroke="white"/>
<path d="M406.557 146L409.172 156.267" stroke="white"/>
<path d="M411.009 166.906L412.719 177.361" stroke="white"/>
<path d="M411.009 166.906L412.719 177.361" stroke="white"/>
<path d="M411.009 166.906L412.719 177.361" stroke="white"/>
<path d="M413.105 189L412.974 199.594" stroke="white"/>
<path d="M413.105 189L412.974 199.594" stroke="white"/>
<path d="M413.105 189L412.974 199.594" stroke="white"/>
<path d="M411.685 213L409.716 223.41" stroke="white"/>
<path d="M411.685 213L409.716 223.41" stroke="white"/>
<path d="M411.685 213L409.716 223.41" stroke="white"/>
<path d="M407.421 235L404.552 245.199" stroke="white"/>
<path d="M407.421 235L404.552 245.199" stroke="white"/>
<path d="M407.421 235L404.552 245.199" stroke="white"/>
<path d="M400.756 257L396.16 266.546" stroke="white"/>
<path d="M400.756 257L396.16 266.546" stroke="white"/>
<path d="M400.756 257L396.16 266.546" stroke="white"/>
<line y1="-0.5" x2="8.04619" y2="-0.5" transform="matrix(-0.923418 0.383796 -0.293635 -0.955918 290.115 362)" stroke="white"/>
<line y1="-0.5" x2="8.04619" y2="-0.5" transform="matrix(-0.866025 0.5 -0.4148 -0.909913 311.884 352.532)" stroke="white"/>
<line y1="-0.5" x2="8.04619" y2="-0.5" transform="matrix(-0.819152 0.573576 -0.492525 -0.870298 331.276 341)" stroke="white"/>
<line y1="-0.5" x2="8.04619" y2="-0.5" transform="matrix(-0.766044 0.642788 -0.566503 -0.82406 348.063 329.722)" stroke="white"/>
<line y1="-0.5" x2="8.04619" y2="-0.5" transform="matrix(-0.707107 0.707107 -0.636169 -0.77155 362.375 316)" stroke="white"/>
<line y1="-0.5" x2="8.04619" y2="-0.5" transform="matrix(-0.642788 0.766044 -0.700993 -0.713168 375.857 301)" stroke="white"/>
<line y1="-0.5" x2="8.04619" y2="-0.5" transform="matrix(-0.573576 0.819152 -0.760482 -0.649359 386.579 286.786)" stroke="white"/>
<line y1="-0.5" x2="8.04619" y2="-0.5" transform="matrix(-0.422618 0.906308 -0.861689 -0.507437 393.086 274)" stroke="white"/>
<path d="M261.42 372.426L251.223 374.476" stroke="white"/>
<path d="M261.42 372.426L251.223 374.476" stroke="white"/>
<path d="M261.42 372.426L251.223 374.476" stroke="white"/>
<path d="M231.101 377.033L220.806 377.098" stroke="white"/>
<path d="M231.101 377.033L220.806 377.098" stroke="white"/>
<path d="M231.101 377.033L220.806 377.098" stroke="white"/>
<path d="M200.745 376.583L190.518 375.651" stroke="white"/>
<path d="M200.745 376.583L190.518 375.651" stroke="white"/>
<path d="M200.745 376.583L190.518 375.651" stroke="white"/>
<path d="M170.969 372.229L161.113 369.331" stroke="white"/>
<path d="M170.969 372.229L161.113 369.331" stroke="white"/>
<path d="M170.969 372.229L161.113 369.331" stroke="white"/>
<path d="M143.267 362.003L133.707 358.152" stroke="white"/>
<path d="M143.267 362.003L133.707 358.152" stroke="white"/>
<path d="M143.267 362.003L133.707 358.152" stroke="white"/>
<path d="M117.231 347.902L108.482 342.24" stroke="white"/>
<path d="M117.231 347.902L108.482 342.24" stroke="white"/>
<path d="M117.231 347.902L108.482 342.24" stroke="white"/>
<path d="M94.3357 330.487L86.6641 323.185" stroke="white"/>
<path d="M94.3357 330.487L86.6641 323.185" stroke="white"/>
<path d="M94.3357 330.487L86.6641 323.185" stroke="white"/>
<path d="M76.3946 311.757L69.3513 303.716" stroke="white"/>
<path d="M76.3946 311.757L69.3513 303.716" stroke="white"/>
<path d="M76.3946 311.757L69.3513 303.716" stroke="white"/>
<path d="M62.3216 291.166L56.6905 281.835" stroke="white"/>
<path d="M62.3216 291.166L56.6905 281.835" stroke="white"/>
<path d="M62.3216 291.166L56.6905 281.835" stroke="white"/>
<path d="M50.3361 269.894L46.2882 259.556" stroke="white"/>
<path d="M50.3361 269.894L46.2882 259.556" stroke="white"/>
<path d="M50.3361 269.894L46.2882 259.556" stroke="white"/>
<path d="M41.5831 247.022L39.2415 235.992" stroke="white"/>
<path d="M41.5831 247.022L39.2415 235.992" stroke="white"/>
<path d="M41.5831 247.022L39.2415 235.992" stroke="white"/>
<path d="M36.3168 224.294L34.8584 213.042" stroke="white"/>
<path d="M36.3168 224.294L34.8584 213.042" stroke="white"/>
<path d="M36.3168 224.294L34.8584 213.042" stroke="white"/>
<path d="M33.329 199.726L32.7649 188.339" stroke="white"/>
<path d="M33.329 199.726L32.7649 188.339" stroke="white"/>
<path d="M33.329 199.726L32.7649 188.339" stroke="white"/>
<path d="M33.7319 174.299L35.2573 163" stroke="white"/>
<path d="M33.7319 174.299L35.2573 163" stroke="white"/>
<path d="M33.7319 174.299L35.2573 163" stroke="white"/>
<path d="M37.4263 150.862L40.8905 140" stroke="white"/>
<path d="M37.4263 150.862L40.8905 140" stroke="white"/>
<path d="M37.4263 150.862L40.8905 140" stroke="white"/>
<path d="M44.9596 128.691L49.3573 118.172" stroke="white"/>
<path d="M44.9596 128.691L49.3573 118.172" stroke="white"/>
<path d="M44.9596 128.691L49.3573 118.172" stroke="white"/>
<path d="M54.8153 106.595L60.9728 96.9999" stroke="white"/>
<path d="M54.8153 106.595L60.9728 96.9999" stroke="white"/>
<path d="M54.8153 106.595L60.9728 96.9999" stroke="white"/>
<path d="M67.577 88.0223L74.5474 79" stroke="white"/>
<path d="M67.577 88.0223L74.5474 79" stroke="white"/>
<path d="M67.577 88.0223L74.5474 79" stroke="white"/>
<defs>
<clipPath id="clip0_28_2216">
<rect width="28" height="29.75" fill="white" transform="translate(117.138 252) rotate(49)"/>
</clipPath>
<clipPath id="clip1_28_2216">
<rect width="200" height="123.594" fill="white" transform="translate(219.364 22) rotate(50)"/>
</clipPath>
</defs>
</svg>
